<svg xmlns="http://www.w3.org/2000/svg" x="0px" y="0px" width="100" height="100" viewBox="0 0 32 32">
<path fill="none" stroke="#000" stroke-linecap="round" stroke-linejoin="round" stroke-width="2" d="M10.003,12.507 c-0.157-1.028-0.193-2.055-0.109-3.083c0.257-3.141,2.905-5.673,6.056-5.689c0.033,0,0.067,0,0.1,0 c3.151,0.016,5.799,2.549,6.056,5.689c0.085,1.034,0.047,2.069-0.112,3.103"></path><path fill="none" stroke="#000" stroke-linecap="round" stroke-linejoin="round" stroke-width="2" d="M23.719,26.95 c-5.146,1.4-10.292,1.4-15.438,0C7.716,26.796,7.235,26.394,7,25.859c-1.714-3.906-1.714-7.812,0-11.718 c0.235-0.536,0.717-0.938,1.281-1.091c5.146-1.4,10.292-1.4,15.438,0c0.564,0.154,1.046,0.556,1.281,1.091 c1.714,3.906,1.714,7.812,0,11.718C24.765,26.394,24.284,26.796,23.719,26.95z"></path><circle cx="16" cy="20" r="1"></circle><circle cx="20" cy="20" r="1"></circle><circle cx="12" cy="20" r="1"></circle>
</svg>